<svg xmlns="http://www.w3.org/2000/svg" viewBox="0 0 1000 800"><defs><style>.cls-1,.cls-5{fill:none;}.cls-1{stroke:#442257;}.cls-1,.cls-2,.cls-3,.cls-5,.cls-6{stroke-linecap:round;stroke-linejoin:round;stroke-width:4px;}.cls-2{fill:#abdddf;stroke:#abdddf;}.cls-3{fill:#fab550;stroke:#fab550;}.cls-4{opacity:0.4;}.cls-5,.cls-6{stroke:#f15d4a;}.cls-6{fill:#f15d4a;}</style></defs><g id="Layer_2" data-name="Layer 2"><path class="cls-1" d="M691.15,220.85c-1.67-2.44-1.12-8.73,1.08-10.36,2.6-1.93,8.88-1,11.95-1,2.42,0,5.51-.07,7.2,2.64,1.43,2.31,1.06,6.13,1.06,6.13"/><path class="cls-1" d="M692.23,210.49c-5.72.21-6.1-2.44-5-4.43,1.82-3.31,8.06-2.41,15.95-2.39,15.17.05,10.73,6.56,8.79,7.65"/><path class="cls-2" d="M758.29,251.14a24.56,24.56,0,0,0-12.52-6.94c-2.17-2.72-4.26-5.76-5.58-7.44-10.4-13.23-28.24-22-45.65-19.58-13.18,1.86-27.08,10.19-31.12,23-1.73,5.47-2.2,11.53.26,16.85,1.53,3.32,5.54,12.08,13.88,14a109,109,0,0,1,4.07-10.23h0c8.36,4.52,23.16,2.5,27.61-4,.83,9,13.66,6.39,20.25,4.78,0,3.69,3.65,8,6.59,10a18.78,18.78,0,0,0,3.74,1.93h0c-.89,3.5-2.13,7.22-3.53,11.05,10.23,2.52,23-5.14,25.7-17.3C763.17,261.83,761.92,255.25,758.29,251.14Z"/><path class="cls-1" d="M593,428.72c3.4-6.89,6.21-17.14,13.38-20.47"/><path class="cls-1" d="M638.26,375.76A79.91,79.91,0,0,0,613,380.3c-13.84,5.07-28.4,18.17-38,29-10.27,11.63-26.16,24.59-31.1,27.33"/><path class="cls-1" d="M227,700.76c-3.78,13.77-12.07,40.53-12.07,40.53H199s2.46-27.12,3.82-40.32"/><path class="cls-1" d="M417.15,700.76c3.78,13.77,12.07,40.53,12.07,40.53h15.94s-2.45-29.12-3.82-42.32"/><path class="cls-1" d="M373,700.76c1.76,12.28,4.26,40.53,4.26,40.53H361.38c-1.81-7.85-12.56-40.53-12.56-40.53"/><path class="cls-1" d="M737,697.76c3.78,13.77,13.08,43.53,13.08,43.53H766s-2.45-29.12-3.81-42.32"/><path class="cls-1" d="M550.38,697.76c-1.76,12.28-5.26,43.53-5.26,43.53H561c1.81-7.85,13.57-43.53,13.57-43.53"/><path class="cls-3" d="M801.17,395c-10.53-4.12-26.19-4.33-40.74-4.33h-.7c-.36,3.24-.88,6.72-1.27,10.41-3.12,29.39-14.49,59.55-23.79,87.52v.79H550.45c-8.72-.52-20.24.47-26.59,7.28-5.63,6-3.05,15.77-2.54,23.67.93,14.4,3.45,28.91,5.66,43.27l1.18,7.46c-6.07,1.16-7.44,9-14.46,8.93-4.69,0-6.81-3.87-10.94-4.93-13.1-3.35-17.4,13.34-29.29,12.17-6.61-.64-9.25-4.16-16.55.56-2.34,1.52-4.71,6.08-6.67,7-2.52,1.14-40.23,3.07-47.27,3.92-2.46.3-7.89-.16-10-2s-4.17-13.1-5.36-24.51-5.2-26.09-20.52-26.86-51.7-2.21-79,.43c-31.69,3.07-110.46-13.6-111.66,36.92-.65,26.93-1.39,54.48,3.12,81.23,1.43,8.54,3.35,21.44,9.44,29.33a18.59,18.59,0,0,0,5,4.56c7,4.3,17.39,2.63,25.12,2.63h48.24c49.37,0,97.18-.66,146.54-.36,7.26,0,14.49-.55,21.35-2.79H760.79c17.46,0,20.27-18.68,25-35.45,7.48-26.29,10.59-53.57,14.65-80.62,3.51-23.39,7.42-47.24,12.75-70.26,5.71-24.66,6.94-49.44,9.45-74.55C824.53,417.67,819.53,402.15,801.17,395Z"/><g class="cls-4"><line class="cls-5" x1="671.69" y1="305.3" x2="675.62" y2="310.81"/><line class="cls-5" x1="677.59" y1="300.57" x2="687.04" y2="313.56"/><line class="cls-5" x1="685.47" y1="299.79" x2="695.31" y2="313.96"/><line class="cls-5" x1="696.09" y1="300.18" x2="705.94" y2="315.53"/><line class="cls-5" x1="707.51" y1="302.54" x2="713.41" y2="312.38"/></g><path class="cls-1" d="M523.1,496.43c-3-9.25,7.15-25.14,18-29.94,12.2-5.37,31.49-13,45.42-11.87h0"/><path class="cls-1" d="M625.23,442.37v-.27c-7.07-18.59-52.57-11.54-67-9.12-30.45,5.11-55,27-85.62,35.73-5.4,1.55-25.51,3-37.77,9.79h0c-3.41,0-6.79.37-10.08.53-10.91.53-24.16,3.57-33.35,4.79-6.68-.67-14.21-.31-20.91,0-6.14.28-42.62,4.39-42.62,4.39,7.61,2,13.4,10,16.5,17.67,4.26,10.46,6,25.52,5.26,37l0,1.64c7,.21,13.09.49,17.44.71,15.32.77,19.33,15.44,20.52,26.86s3.17,22.55,5.36,24.51,7.53,2.34,10,2c7-.85,44.75-2.78,47.27-3.92,2-.89,4.33-5.45,6.67-7,7.3-4.72,9.94-1.2,16.55-.56,11.89,1.17,16.19-15.52,29.29-12.17,4.13,1.06,6.25,4.9,10.94,4.93,7,0,8.42-7.57,14.49-8.73"/><path class="cls-1" d="M543,664.54c-1.81-15-13.29-83.28-16-101-2.21-14.36-4.73-28.87-5.66-43.27-.51-7.9-3.09-17.63,2.54-23.67,6.35-6.81,17.87-7.8,26.59-7.28H747.27c19.27,0,19.47,25.44,21.25,37.79"/><path class="cls-1" d="M734.67,488.55c9.3-28,20.67-58.13,23.79-87.52,1.72-16.17,5.89-28.45-12-32.91-6.6-1.65-19.49-3.34-25-3.17"/><path class="cls-1" d="M695.31,397.23c-3.76,12.63-16.8,22.61-3.67,35.31-10.68-7.84-21.73-.49-21.48,13.3-2.13-10.16-22.78-5.27-29.22-4.68-13.47,1.23-26.17,1.15-38.92,5.56-9.91,3.43-17.43,5.5-18.9,16.25-.84,6.11-3.07,19.29.39,24"/><path class="cls-1" d="M723.7,442.5a13.64,13.64,0,0,1,3.14-.79"/><path class="cls-1" d="M705.84,427.47a22.46,22.46,0,0,0-3-1.8"/><path class="cls-1" d="M710.66,416a6.72,6.72,0,0,0,1.58-3.69"/><path class="cls-1" d="M741.76,394.08a4,4,0,0,0,3.15-2.36"/><path class="cls-1" d="M733.88,381.48v-1.57"/><path class="cls-1" d="M751.2,378.33a5.59,5.59,0,0,0,2.37-.78"/><path class="cls-1" d="M744.91,427.93c1.36-.41,2.61-.24,3.14.79"/><path class="cls-1" d="M720.24,398.48l-1.91-2.5"/><path class="cls-1" d="M689.8,487.77C685,473,697.18,469.3,708.71,468.26c14-1.27,20.17-17.5,34.62-12.77"/><path class="cls-1" d="M620.51,479.11a14,14,0,0,1-3.14.78"/><path class="cls-1" d="M601.62,464.15a5,5,0,0,1-.79-2.37"/><path class="cls-1" d="M612.64,457.06v-3.15"/><path class="cls-1" d="M644.13,467.3v2.36"/><path class="cls-1" d="M670.11,463.36a4.37,4.37,0,0,1,3.94.79"/><path class="cls-1" d="M685.86,446l1.57-1.58"/><path class="cls-1" d="M655.94,448.4c0-1.49.54-2.75,1.58-3.15"/><path class="cls-1" d="M553.87,473.38c-8.2-.08-23.1,9.64-23.62,18.68"/><path class="cls-1" d="M700.82,377.76c-15.36,10.63-28.79,29.14-36.37,46.11-10.39-1.8-24.35-2.36-35.4-2.95,2.31-14.72,19.58-36.54,31.32-44.89,7.73-5.5,15.86-2.54,24.93-.26,11,2.77,18.55,2.77,28.11-4.06,7.21-5.14,11.43-9.88,11.84-19.75.37-8.92-5.22-11.3-13.58-10.63-10.85.87-22.84,5.69-33.88,7.88-9.56,1.89-17.75.15-27,.78-9.6.66-14.47,13.38-13,22.87,1.74,11.21,7.84,7.05,16.1,7.83"/><path class="cls-1" d="M658.45,424.84A17.9,17.9,0,0,0,655.8,431"/><path class="cls-1" d="M646.5,431.08a21.51,21.51,0,0,1,2.36-7.08"/><path class="cls-1" d="M640.38,422.52c-1.58,3.15-2.39,7.61-2.91,9.92"/><path class="cls-1" d="M631.73,422.31a41.31,41.31,0,0,0-2.68,6.75"/><path class="cls-1" d="M242.5,544.34c17.6,0,34.33,2.41,45.62,1.32,18-1.75,43-1.71,60.3-1.26"/><path class="cls-1" d="M450.25,594.72c1.45,18.86,1.76,50.69,1.78,69.39,0,12.69,1.35,23.87-8.66,30.52"/><path class="cls-1" d="M378.82,695.54c1.88-46.51,2.94-96.9-7.09-140.07"/><path class="cls-1" d="M466.28,492.06c-6.73-7.46-21.1-12.76-31.39-13.55"/><path class="cls-1" d="M225.61,557.3c4-5.32,12-10.88,17.85-12.75"/><path class="cls-1" d="M248.64,555.62c.86-3.53,6.89-10,10.12-10.75"/><path class="cls-1" d="M388.05,539.22c39.1,0,49.74-.15,61.33,8.69,8.49,6.47,10.77,19.74,16.88,28"/><path class="cls-1" d="M478.8,534.21c4.8,7.41,7.41,25.26,15.32,31.54"/><path class="cls-1" d="M490.61,516.11c7.83,5.86,11.57,37.87,20.88,44.41"/><path class="cls-1" d="M391.46,483.83c10.94,1.09,21,5.1,28.17,13.16"/><path class="cls-1" d="M289.8,557.25c3.12-5.2,8.79-11.83,14.75-12.65"/><path class="cls-1" d="M739.81,273.44c-2.77,10.92-8.92,23.9-12.91,36.28,6.06.1,18.87.84,17.06,10.35-1.48,7.8-14.19,8.05-20.17,8-1.73,4-4.5,13.24-4.5,13.24"/><path class="cls-1" d="M652.79,348.78s6.09-17.71,8.36-27.2c2.5-10.46,6.46-20.46,10-30.63,3.13-9.15,6.09-20.64,10.53-30.15"/><path class="cls-1" d="M676.41,255.19c4.13,10.92,27.1,10,32.83,1.56.83,9,13.66,6.39,20.25,4.78,0,3.69,3.65,8,6.59,10a17,17,0,0,0,10.79,3"/><line class="cls-1" x1="676.41" y1="298.03" x2="677.99" y2="293.7"/><path class="cls-1" d="M541.39,456.67c2.28,1.49,5.58,3.12,5.12,6.3"/><path class="cls-1" d="M556,448.79c2.06,1.37,10.29,6.6,7.87,8.27"/><line class="cls-1" x1="702.88" y1="300.19" x2="704.45" y2="295.86"/><path class="cls-6" d="M669.62,321.15s-16.11-12.48-23.81-18.06c-7.07-5.12-14-10.66-21-15.73-3,5.8-10.21-.13-7.29-5.87,3.94-7.75,13.13.39,7.29,5.87"/><path class="cls-1" d="M661.76,320.45s2.41,4.59,4.64,4.89c3.33.41,7.88-7.53,10.87-5,1.79,1.5-1,4.75.05,6.27,2,2.68,5.37-1.88,6.67-3.33,2.67-3,7.45-7.32,9.91-2.57,1.52,2.95-.45,5.4,4.7,4.67"/><path class="cls-1" d="M621.77,267.37a15.43,15.43,0,0,1,.13-12.22c1.64-3.77-1.71-7.59-.9-11.46"/><path class="cls-1" d="M630.19,270.18A14.67,14.67,0,0,1,631,261a8.64,8.64,0,0,0-.33-6.62"/><path class="cls-1" d="M612.53,270.46c-1.78-3.54-.29-7.08.57-10.19a13.86,13.86,0,0,0-.33-7.66"/><path class="cls-1" d="M704.13,387.8a6.07,6.07,0,0,1,2.68-1.53"/><path class="cls-1" d="M713.7,374a4.2,4.2,0,0,1,1.92,1.15"/><path class="cls-1" d="M732.85,413.07a23.34,23.34,0,0,1,3.45-1.91"/><path class="cls-1" d="M682.68,410a18,18,0,0,0,4.21,2.68"/><path class="cls-1" d="M674.26,421.88a7.23,7.23,0,0,0,1.91-1.91"/><path class="cls-1" d="M611.45,418.82a5.67,5.67,0,0,0,1.91,1.53"/><path class="cls-1" d="M616,412.69a1.72,1.72,0,0,1,1.54-1.53"/><path class="cls-1" d="M631.36,401.2a5.46,5.46,0,0,0,1.92.77"/><path class="cls-1" d="M635.58,388.56a6,6,0,0,1,.38-1.91"/><path class="cls-1" d="M628.3,379.61c.28-1.32.56-2.58.77-3.83"/><path class="cls-1" d="M606.47,380.75A6.08,6.08,0,0,0,608,381.9"/><path class="cls-1" d="M597.66,400.44a7.18,7.18,0,0,0,1.53-1.15"/><path class="cls-1" d="M613,391.63a3.29,3.29,0,0,0,2.3.38"/><path class="cls-1" d="M754.6,407.71A23.34,23.34,0,0,0,760,407"/><path class="cls-1" d="M703.36,461.33a6.27,6.27,0,0,1,.77-1.53"/><path class="cls-1" d="M665.06,485.75l-1.14,1.54"/><path class="cls-1" d="M654.34,482h-3.83"/><path class="cls-1" d="M635.58,446.78a2.34,2.34,0,0,1,1.53-2.3"/><path class="cls-1" d="M601,449.92l-1.15-1.53"/><path class="cls-1" d="M590.77,480.48a9.84,9.84,0,0,1-1.92,2.3"/><path class="cls-1" d="M580.89,470.52a23.2,23.2,0,0,1,3.83.77"/><path class="cls-1" d="M561.6,424.18a6.59,6.59,0,0,1-1.92-1.91"/><path class="cls-1" d="M581.19,424.18a3.34,3.34,0,0,0,2.68-.77"/><path class="cls-1" d="M583.11,411.92a8.25,8.25,0,0,1-.77-2.29"/><path class="cls-1" d="M293.89,543.18c-7.12-14.55-12.31-28.8-15.12-45.8-1.64-9.89-8.4-39.87-.2-47.5,20.2-18.78,35.59,54,37.61,67.07,1.05,6.75,1.67,21.33-2.05,26.95"/><path class="cls-1" d="M242.5,544.34a150.15,150.15,0,0,1-15.12-44c-1.64-9.28-8.4-37.42-.2-44.58,20.19-17.62,35.58,50.66,37.61,62.94,1,6.34,3,20.54-1.16,25.55"/><path class="cls-1" d="M276,481.47c-2.67-7.93-11.81-17.6-19.75-22.59s-19.19-6.4-21.74-5.95"/><path class="cls-1" d="M266.81,520c4.57-2.57,11.36-7,13.6-11"/><path class="cls-1" d="M286.3,446.8c16.65,3.78,31.72,23.34,39.2,37.84,2.82,5.46,1.75,11.5.43,15.75s-6.56,14.05-8.73,15.93"/></g></svg>