<svg xmlns="http://www.w3.org/2000/svg" viewBox="0 0 1000 800"><defs><style>.cls-1,.cls-7{fill:none;}.cls-1,.cls-6{stroke:#442257;}.cls-1,.cls-2,.cls-3,.cls-4,.cls-5,.cls-6,.cls-7{stroke-linecap:round;stroke-linejoin:round;stroke-width:4px;}.cls-2{fill:#abdddf;stroke:#abdddf;}.cls-3{fill:#29abac;stroke:#29abac;}.cls-4{fill:#fab550;stroke:#fab550;}.cls-5{fill:#f15d4a;stroke:#f15d4a;}.cls-6{fill:#442257;}.cls-7{stroke:#fff;}</style></defs><g id="Layer_2" data-name="Layer 2"><path class="cls-1" d="M271.43,181.89A326.19,326.19,0,0,1,745.7,201.1"/><path class="cls-1" d="M292.93,667.56c-77-63.11-124.26-160.56-119.27-267.67a324.63,324.63,0,0,1,48-155.83"/><path class="cls-1" d="M637.91,710.54a327,327,0,0,1-282.58-2.75"/><path class="cls-1" d="M789.17,265A326.33,326.33,0,0,1,711,663.42"/><path class="cls-2" d="M728.21,500h0l-21.45-1.48a17.51,17.51,0,0,0-18.66,16.26h0a17.51,17.51,0,0,0,16.26,18.66l21.45,1.48Z"/><ellipse class="cls-3" cx="544.66" cy="678.41" rx="19.16" ry="30.82" transform="translate(-290.52 922.07) rotate(-67.51)"/><circle class="cls-4" cx="484.04" cy="593.98" r="25"/><ellipse class="cls-5" cx="376.53" cy="181.89" rx="37" ry="23" transform="translate(-41.55 189.93) rotate(-26.88)"/><path class="cls-1" d="M529.06,262.29c-13.74,2.28-30.12,9.52-39.23,20.13-4.7-4-10.65-9.91-16.31-12.5-3.19-1.47-10.22-4.51-12.58-4.68"/><path class="cls-1" d="M477.78,281.34c-.49,10.42-.4,20.9-.94,31.14"/><path class="cls-1" d="M501.64,299.6c1-3.88.94-18.26.94-18.26"/><path class="cls-1" d="M450.09,278.54s-15.25-6-22.26-8.58c-8.57-3.1-16.92-6.79-25.45-10-15.11-5.69-42.32-18.12-57.59-23.34-3.63-1.25-28-12.89-29.15-6.71-5.66,4.38-11,14.68-13.88,21.17-2.7,6-6.85,13.06-6.45,19.8.6,9.95,16.94,15,24.59,18.54,19.45,9.06,51.53,23.59,70.67,33.41,11.36,5.83,24.7,8.59,34.76,15.38,4.28,2.89,2.35,13.49,1.66,18.37-1.13,7.94-1,15.09-1,23.09,0,6.69-1.19,18.31,7.23,20.25s18.49-.37,23.16-.84c8.36-.84,17.51-.47,26-.48,16.07,0,32.25,2.72,48.38,3.31,10.36.38,28.09,1.72,33.74-2.2s1.67-27.81,1-38.65c-.44-7.06-.31-14.37-.64-21.38-.51-11-1.53-13.5,8.94-18.05,13.9-6,28.21-11.8,42.42-17,12.48-4.54,24.73-9.1,37.18-13.69,12.61-4.65,27.24-5.94,38.8-12.14,4.71-2.53,6.49-6,7.43-10.94,1.17-6.13.89-12.07.35-18.26-.46-5.16,1.73-11.38-1.72-15.7s-8.84-3.42-13.58-2.69c-6.21,1-14.31,3.69-20.39,5.38-14.8,4.1-27.59,9.34-42.65,12.61-12.27,2.66-24.71,7.36-36.73,11.24-11.58,3.75-22.38,7.26-34.4,9.9-2,.44-10.13,3.53-12.1,3.92"/><path class="cls-1" d="M519.35,248.37A40.65,40.65,0,0,1,541.79,255c4.6,3,7.51,11.86,4.18,16.63,0-1,.58-.59,1.12-1.32"/><path class="cls-1" d="M444,275.93c-6.72-6.32,1.63-17.21,6.55-20,5.68-3.17,11.66-6.11,18-5.85"/><path class="cls-1" d="M518.65,263.4s.34-16.43.21-26.26c4.52,2.34,12,1,11.6-4.72s-7-7.59-12.15-9.67c-.14-5.66-.17-11.3-.15-17,0-10,1.94-21.75-.19-31.54-2.6-11.87-16.82-11.87-26.62-10.91-6.42.64-14.19-.1-18.53,5.63-3.62,4.78-2.94,14.35-3.22,20.29-.54,11.58-.35,23.14-.35,34.72-4.5.93-9.57,3.18-9.82,7.77-.32,6,4.75,5.12,8.55,3.22l1.18-1.75c-.21,13.43-1.11,34.47-1.11,34.47"/><path class="cls-1" d="M479.88,209.34a4.82,4.82,0,0,1,8.72-.64"/><path class="cls-1" d="M484,219.29c5.42,7.43,12,6,18.34,1.37"/><path class="cls-1" d="M472.1,179.37c4.17,5.09,9.17,10.88,16.49,11.09,9.23.25,8.39-6,6.55-12.93,1.68,2.23,2.94,6.68,5.28,8,3.47,2,6.24,0,5.93-4.05,3.12,3,6.77,3.42,11,3.56"/><path class="cls-1" d="M309.33,233.72s-8.71-7-13.81-8.75a105.3,105.3,0,0,0-17.29,30.2c5.36,1.7,10.57,5.3,15.41,8"/><path class="cls-1" d="M699.5,236c3.9-2.33,16.32-6.24,20.94-5.21,3.29.74,2.73.38,3,4.88.22,3.76.47,7.48.62,11.16a69.47,69.47,0,0,1-.66,14.05c-1.24,6.83-23.39,8.41-23.39,8.41"/><path class="cls-1" d="M435.15,400.29l-.44,20.9s16.75,0,21.69-.36c8.2-.59,16.46-1.35,24.69-1.31,18.57.1,37.1,1,55.65.55,5.45-.14,10.88-.48,16.28-.75,2-.1,8.62-.08,8.62-.08l1.82-18.52"/><path class="cls-1" d="M297.5,257.19c-4.05-1.87-10.39-5.05-12.37-8.75"/><path class="cls-1" d="M301.64,245.12c-1.81,2.42-5.62-2-7.51-3.42"/><path class="cls-1" d="M303.34,241.62c-3-3-7.09-5.26-10.41-7.13"/><path class="cls-1" d="M701.23,242.72c5.29-2.15,17.63-5.32,17.63-5.32"/><path class="cls-1" d="M701.31,251.92c2.64-2.07,9.37-2.33,11.36-2.54"/><path class="cls-1" d="M700.47,259c5.37-1.57,12.45-3.31,18-2.74"/><line class="cls-1" x1="445.84" y1="402.56" x2="445.76" y2="419.34"/><path class="cls-1" d="M455.14,400.44l-.66,14.28"/><path class="cls-1" d="M471.24,417c.27-5.84.75-11.57,1.32-17.32"/><path class="cls-1" d="M495.77,417.16c.24-4.82,2.24-11.87,2.24-15.23"/><path class="cls-1" d="M520.3,417.28c.05-5,2.14-9.78,2.22-14.72"/><path class="cls-1" d="M528.44,418.17a53.48,53.48,0,0,0,3.19-13.65"/><path class="cls-1" d="M551.46,417.71c.39-4,2.08-8,2.1-12.17"/><path class="cls-1" d="M289.45,229.8c-3.47-1.75-10.71-6-14.15-7.71-2.74-1.35-3.48-2.34-3.29-5.69.64-11.11-4.1-20.71-16.72-18.66-11.91,1.94-22,18.15-23.12,29.35s7.73,20.66,18.65,21.16A10.34,10.34,0,0,0,261,242.06c3.28-.36,9.3,3.14,12.15,4.88,1.91,1.17,4.27,3.23,6.36,3.45"/><path class="cls-1" d="M270.59,211.73c-3.54-1.83-4.45-1.8-8.18-.36-3.21,1.22-6.13,2.62-8.37,5.61-1.36,1.8-3,5-2.41,7.39,1,4.29,6,2.44,8.86.82-12,.87-14,24.14-2.58,21"/><path class="cls-1" d="M245.68,202.85c-.1,4.61,2.95,11.24,7.91,11.8"/><path class="cls-1" d="M236.91,216c-.87,7.52,8.93,14.57,15.59,14.65"/><path class="cls-1" d="M232.47,228c-.68,4.77,3.43,8.71,7.38,10.47,3.57,1.59,6,.33,9.49-.12"/><path class="cls-1" d="M436.78,421.56s-7,15.08-10.44,20.48c-5.2,8.07-8.72,17.26-12.55,26-8.39,19.18-19.89,37-29.34,55.62-8.55,16.85-15.34,34.8-24.36,51.4-6,11-12.43,24.58-17.8,35.92-2,4.31-3.71,13.6.42,18.38,8.55,9.89,18.76,16.78,29.31,24.52,9.58,7,15.44,4.61,22.85-5.17,6.43-8.48,9.45-18.57,14.59-27.82,7.44-13.4,14.71-26.88,21.44-40.65,12.25-25,26.84-48.45,42.57-71.36,5-7.37,23.37-34.57,23.37-34.57s4,6.49,4.77,8.15c7,14.52,16.76,27.69,24.45,41.86,8.61,15.89,17,31.81,27,46.9,6.92,10.41,12.37,21.67,19.37,32,7.71,11.43,15.26,23,22.75,34.52,5.19,8,11.86,18.88,22.56,15.56,12.93-4,26-12.28,35.61-21.71,7.57-7.45,7-16,4.77-25.81-4.75-21.19-17.29-41.9-27-61.17-5.6-11.12-18.76-35.5-25.13-46.18s-17.49-29.7-23.5-40.7C576.21,446.33,560,420.16,560,420.16"/><path class="cls-1" d="M452.1,421.77c1.13,8.51-10.12,19.71-16.47,24.28"/><path class="cls-1" d="M544.71,420c5.61,9.13,6.64,21,18.82,23.89"/><path class="cls-1" d="M487.21,585.25c-2.33-3-7.52-2.2-9.22.08-2.36,3.15-2.25,8.11-1.24,11.73,1.17,4.14,3.48,7.38,8.1,7.6,3.23.16,8.2-2.16,8-6.4"/><path class="cls-1" d="M546.73,669c-.06-4.53-6.76-4.32-9-3.4-4.2,1.71-6.07,5.58-6.86,9.87-1.34,7.27,2.27,11.41,9,10.88"/><path class="cls-1" d="M551.82,676.57c4.48.17,6.27,3,4.6,8.17-1,3.14-4.32,7.46-8,6.09-7.79-2.9,5.08-9.59,4.42-1.68"/><path class="cls-1" d="M365.76,200.08c-3.78-6.61-8.79-13.42-10.39-21,6.72-5.24,12.41,4,4.25,8.18,4.25-2.46,8.8-4.19,11.37,1.6.94,2.11,1.89,7.06.18,9C369.81,199.47,367.43,199.91,365.76,200.08Z"/><path class="cls-1" d="M374.44,179.75c.33-2.92-.27-6,.48-8.79,3.93,5.21,4.9,12.37,8.35,18"/><path class="cls-1" d="M382.42,170.61c.52-5.34,5.94-7,7.9-1.73,2.06,5.57-3,12-2.05,17.14,2-2,11.68-7.17,11.68-7.17"/><path class="cls-1" d="M723.23,235s7.6-1.8,11.37-2.48c3-.53,4-1.29,4.73-4.56,2.46-10.85,9.67-18.77,21.23-13.31,10.91,5.15,16.14,23.51,14.12,34.59S761.55,267,750.91,264.45a10.36,10.36,0,0,1-8-8.75c-3-1.25-18.09,3-18.09,3"/><path class="cls-1" d="M742,223.89c3.91-.79,4.77-.51,8,1.9,2.74,2.07,5.16,4.22,6.5,7.71.8,2.11,1.49,5.62.28,7.77-2.17,3.84-6.43.69-8.75-1.66,11.25,4.13,6.81,27.07-3.3,20.87"/><path class="cls-1" d="M768.38,222.22c-1.18,4.46-5.93,10-10.86,9.17"/><path class="cls-1" d="M773.17,237.31c-1.23,7.47-12.6,11.54-19,9.79"/><path class="cls-1" d="M774.13,250.06c-.66,4.78-5.7,7.43-10,8-3.87.55-5.81-1.32-9.09-2.74"/><path class="cls-1" d="M350.85,639.51s-4.66,7.36-6.37,10.48c-1,1.79-3.77,7.4-3.77,7.4s7.94,3.69,10.78,6c2.43,2,8.9,7.45,8.9,7.45s9.14-14.22,10.71-17.18"/><path class="cls-1" d="M355.33,665.71c2.82-4,10.21-15.37,10.21-15.37"/><path class="cls-1" d="M348.94,660.27c2.84-4.53,6.36-9.75,8.74-14.55"/><path class="cls-1" d="M359.26,670s-5.1,7.57-7.3,10.61c-1.92,2.65-3.57,5.57-5.44,8.21a113.67,113.67,0,0,0-6.71,10"/><path class="cls-1" d="M341.85,659.1c-4.57,4.42-8,12.4-11.52,17.84-1.35,2.08-6.24,8.22-5.85,9.82"/><path class="cls-6" d="M340.42,699.68c-6.91-3.9-13.38-8.8-20-13.15-2.7-1.78-9.34-10.4-12.59-7.57-5.62,4.9,22.24,22,26.77,24.78,4.31,2.69,5.78,1.75,7-3.14C341.45,700.46,340.49,699.44,340.42,699.68Z"/><path class="cls-1" d="M323.32,685.45c-2.45-2.67-10.79-26-2-24.72,4.26.64,3.67,19.64,2.33,23.46.93-3.56,1.22-8.42,4.74-10.73,2.85-1.87,6.22-1.84,8.49.72C343.65,681.86,326.62,685.09,323.32,685.45Z"/><path class="cls-1" d="M649.47,637.27s5.5,8.47,7.14,11.63c.95,1.81,3.6,7.48,3.6,7.48s-8,3.51-10.92,5.79c-2.48,2-10.07,7.24-10.07,7.24s-2.94-4.91-4.63-7.6c-1.85-2.95-5.18-8.82-6.68-11.83"/><path class="cls-1" d="M645.39,664.36c-2.72-4-11.31-17.64-11.31-17.64"/><path class="cls-1" d="M651.91,659.07c-2.73-4.6-6.16-11.49-9.42-15.75"/><path class="cls-1" d="M641.34,669.55s10.52,15.42,12.33,18.11a115.75,115.75,0,0,1,6.48,10.17"/><path class="cls-1" d="M659,658.06c4.47,4.53,7.71,12.59,11.1,18.1,1.31,2.12,6,8.37,5.62,10"/><path class="cls-6" d="M659.77,698.14c6.88-3.94,13.32-8.88,19.9-13.27,2.69-1.8,9.27-10.46,12.54-7.65,5.65,4.87-22.11,22.1-26.62,24.95-4.3,2.71-5.77,1.77-7-3.1C658.74,698.92,659.69,697.9,659.77,698.14Z"/><path class="cls-1" d="M676.94,684.84c2.51-2.61,11.39-25.79,2.6-24.67-4.28.54-4.13,19.55-2.88,23.4-.84-3.58-1-8.44-4.49-10.84-2.81-1.94-6.18-2-8.5.53C656.7,680.78,673.65,684.4,676.94,684.84Z"/><circle class="cls-5" cx="271.77" cy="532.24" r="29.69"/><path class="cls-1" d="M260.13,538.05c-.35-6.17,2.79-12.46,2.59-18.51,3.4,1.26,7.38,2.4,10.77,3.38"/><path class="cls-1" d="M274.83,536c2.29,1,8.17,3.76,9.91,0,1.92-4.18-5.34-5.47-7.91-4.12-5.48,2.87-1,15.4,5.34,11.4"/><path class="cls-1" d="M261.8,529.79c2.72-.28,5.17,1.47,7.69,1.44"/><circle class="cls-4" cx="612.91" cy="194" r="25"/><circle class="cls-4" cx="647.2" cy="411.63" r="25"/><path class="cls-1" d="M661.59,407.84l-16.54-10.18s-8.84,11.9-11,18.54c3.25,2.45,15,9.25,15,9.25"/><line class="cls-1" x1="640.27" y1="406.14" x2="655.59" y2="416.61"/><circle class="cls-2" cx="535.35" cy="128.87" r="18.31"/><path class="cls-1" d="M533.18,120.94l-3.79,14c.62,3,6,2.3,8.34.78C544.54,131.38,543,121.48,533.18,120.94Z"/><circle class="cls-3" cx="739.59" cy="358.54" r="20"/><path class="cls-1" d="M729.32,355.67c5.7,4,10.41,8.86,16,12.84"/><path class="cls-1" d="M737.21,348.16a68.35,68.35,0,0,0-2.82,11.43c.76-4.95,16-2.62,18.62-.95"/><path class="cls-5" d="M749.66,501.45,728.21,500h0l-2.4,34.92,21.45,1.47a17.5,17.5,0,1,0,2.4-34.91Z"/><ellipse class="cls-2" cx="245.68" cy="344.82" rx="19.83" ry="31.9" transform="translate(-133.82 157.09) rotate(-28.21)"/><path class="cls-1" d="M247.74,329.3c2,4,4.14,8,5.9,12.07-6.6.51-14.4-2.68-20.93-3.29,2,4,5,7.93,6.76,12.11"/><path class="cls-1" d="M253.14,349.19c-2.2,2.29-5.89,3.16-8.57,4.77,2.38-.3,8.19.33,9,3.28.9,3.45-4.19,3.82-4.89,6.12"/><path class="cls-1" d="M509.6,209.34a4.82,4.82,0,0,0-8.72-.64"/><path class="cls-3" d="M311.67,425a17.05,17.05,0,0,0,15.43,30.42l18.69-9.48-15.43-30.42Z"/><path class="cls-2" d="M373.22,412.9h0a17.5,17.5,0,0,0-23.52-7.69l-19.17,9.72,15.83,31.22,19.17-9.72A17.5,17.5,0,0,0,373.22,412.9Z"/><line class="cls-7" x1="316.99" y1="441.77" x2="325.93" y2="437.58"/><path class="cls-1" d="M350.16,423.89A116.22,116.22,0,0,0,361.49,419"/><path class="cls-1" d="M358.28,427.09a116.13,116.13,0,0,0-4.92-11.33"/><path class="cls-1" d="M604.06,185.1c-1.7-1.3-6.29.69-7.42,3.07-2.6,5.46,3.43,3.82,7,4.43,4.44.76,12.28,4,10.32,10.24-1.78,5.62-13.5,3.87-11.16.33"/><path class="cls-1" d="M618.76,194.11c3.23.07,10.47-5.11,6.59-8.36-2.4-2-7,3.2-7.46,5.15-.75,2.92.45,7.19,3.26,8.71,3.42,1.86,7.84-2.55,8.33-2.16"/><path class="cls-1" d="M716.17,510.7c-1.87-3.38-5.33-5.26-9-3.53-4,1.89-7.86,8.33-6,12.87,4.68,11.2,19.64-.57,15.1-9.17Z"/><path class="cls-1" d="M709.41,517.9c2.41,2.51,4.51,6.14,7.39,8"/><path class="cls-1" d="M734.6,514.62c2.19-1.07,4-2.87,6-4l-2.28,16.2"/><path class="cls-1" d="M745.74,523c-1.75-12.1,11-18,11.34-6C757.44,523.36,747.74,533.65,745.74,523Z"/></g></svg>