<svg id="Capa_1" enable-background="new 0 0 512 512" height="512" viewBox="0 0 512 512" width="512" xmlns="http://www.w3.org/2000/svg"><g><path d="m391 227v210c0 8.28-6.72 15-15 15h-240c-8.28 0-15-6.72-15-15v-210l135-28z" fill="#ff6c6c"/><path d="m391 227v210c0 8.28-6.72 15-15 15h-120v-253z" fill="#e63950"/><path d="m391 107v120h-270v-120c0-8.28 6.72-15 15-15h240c8.28 0 15 6.72 15 15z" fill="#e63950"/><path d="m391 107v120h-135v-135h120c8.28 0 15 6.72 15 15z" fill="#ae2538"/><g><path d="m412.12 31.3c-2.86-1.27-71.06-31.3-156.12-31.3s-153.26 30.03-156.12 31.3c-5.4 2.42-8.88 7.78-8.88 13.7v62c0 8.28 6.72 15 15 15h300c8.28 0 15-6.72 15-15v-62c0-5.92-3.48-11.28-8.88-13.7z" fill="#ff6c6c"/></g><path d="m421 45v62c0 8.28-6.72 15-15 15h-150v-122c85.06 0 153.26 30.03 156.12 31.3 5.4 2.42 8.88 7.78 8.88 13.7z" fill="#e63950"/><g><path d="m406 422h-300c-8.28 0-15 6.72-15 15v60c0 8.28 6.72 15 15 15h300c8.28 0 15-6.72 15-15v-60c0-8.28-6.72-15-15-15z" fill="#e63950"/></g><path d="m421 437v60c0 8.28-6.72 15-15 15h-150v-90h150c8.28 0 15 6.72 15 15z" fill="#ae2538"/><g><path d="m331 287v90c0 8.28-6.72 15-15 15h-120c-8.28 0-15-6.72-15-15v-90c0-4.14 1.68-7.89 4.39-10.61h141.22c2.71 2.72 4.39 6.47 4.39 10.61z" fill="#efe2dd"/><path d="m331 287v90c0 8.28-6.72 15-15 15h-60v-115.61h70.61c2.71 2.72 4.39 6.47 4.39 10.61z" fill="#e1d3ce"/><path d="m326.61 276.39-60 60c-2.93 2.93-6.77 4.39-10.61 4.39s-7.68-1.46-10.61-4.39l-60-60c2.72-2.71 6.47-4.39 10.61-4.39h120c4.14 0 7.89 1.68 10.61 4.39z" fill="#fff5f5"/><path d="m326.61 276.39-60 60c-2.93 2.93-6.77 4.39-10.61 4.39v-68.78h60c4.14 0 7.89 1.68 10.61 4.39z" fill="#efe2dd"/></g><g><path d="m331 167c0 8.28-6.72 15-15 15h-120c-8.28 0-15-6.72-15-15s6.72-15 15-15h120c8.28 0 15 6.72 15 15z" fill="#5b5555"/></g><path d="m331 167c0 8.28-6.72 15-15 15h-60v-30h60c8.28 0 15 6.72 15 15z" fill="#463f3f"/></g></svg>